<svg aria-hidden="true" style="position: absolute; width: 0; height: 0; overflow: hidden;" version="1.1" xmlns="http://www.w3.org/2000/svg" xmlns:xlink="http://www.w3.org/1999/xlink">
<defs>
<symbol id="icon-gmail" viewBox="0 0 32 32">
<path fill="#e89c18" style="fill: var(--color1, #e89c18)" d="M16 0c8.837 0 16 7.163 16 16s-7.163 16-16 16c-8.837 0-16-7.163-16-16s7.163-16 16-16z"></path>
<path fill="#000" style="fill: var(--color2, #000)" d="M12.359 16c0-0.416 0.069-0.814 0.192-1.188l-2.157-1.647c-0.42 0.853-0.657 1.815-0.657 2.835s0.237 1.98 0.656 2.833l2.156-1.65c-0.122-0.372-0.19-0.769-0.19-1.183z"></path>
<path fill="#000" style="fill: var(--color2, #000)" d="M16.146 12.218c0.903 0 1.719 0.32 2.36 0.844l1.864-1.862c-1.136-0.989-2.593-1.6-4.224-1.6-2.533 0-4.71 1.448-5.752 3.565l2.157 1.647c0.497-1.509 1.914-2.594 3.595-2.594z"></path>
<path fill="#000" style="fill: var(--color2, #000)" d="M16.146 19.782c-1.681 0-3.098-1.085-3.595-2.594l-2.157 1.647c1.042 2.117 3.219 3.565 5.752 3.565 1.563 0 3.056-0.555 4.176-1.595l-2.047-1.583c-0.578 0.364-1.305 0.56-2.128 0.56z"></path>
<path fill="#000" style="fill: var(--color2, #000)" d="M22.263 16c0-0.378-0.058-0.786-0.146-1.164h-5.972v2.473h3.438c-0.172 0.843-0.64 1.491-1.309 1.913l2.047 1.583c1.177-1.092 1.942-2.719 1.942-4.805z"></path>
</symbol>
<symbol id="icon-whatsup" viewBox="0 0 32 32">
<path fill="#e89c18" style="fill: var(--color1, #e89c18)" d="M16 0c8.837 0 16 7.163 16 16s-7.163 16-16 16c-8.837 0-16-7.163-16-16s7.163-16 16-16z"></path>
<path fill="none" stroke="#000" style="stroke: var(--color2, #000)" stroke-linejoin="miter" stroke-linecap="butt" stroke-miterlimit="10" stroke-width="1.6" d="M9.25 22.75l3-0.825c1.075 0.675 2.375 1.075 3.75 1.075 3.875 0 7-3.125 7-7s-3.125-7-7-7c-3.875 0-7 3.125-7 7 0 1.375 0.4 2.675 1.075 3.75l-0.825 3z"></path>
<path fill="#000" style="fill: var(--color2, #000)" d="M19.475 17.9c-0.475 1-1.35 1.125-1.35 1.125-0.75 0.15-1.7-0.175-2.45-0.525-1.075-0.5-2-1.3-2.625-2.325-0.275-0.475-0.525-1.025-0.55-1.55 0 0-0.1-0.875 0.75-1.575 0.075-0.050 0.15-0.075 0.25-0.075h0.375c0.15 0 0.3 0.1 0.35 0.25l0.575 1.4c0.050 0.15 0.025 0.3-0.075 0.425l-0.375 0.4c-0.125 0.125-0.125 0.3-0.050 0.45 0.025 0.050 0.075 0.125 0.15 0.2 0.45 0.6 1.050 1.050 1.725 1.35 0.1 0.050 0.175 0.075 0.25 0.1 0.175 0.050 0.325-0.025 0.425-0.15l0.3-0.45c0.075-0.125 0.225-0.2 0.375-0.175l1.5 0.225c0.15 0.025 0.275 0.15 0.325 0.3l0.1 0.375c0.050 0.050 0.050 0.15 0.025 0.225z"></path>
</symbol>
<symbol id="icon-facebook" viewBox="0 0 32 32">
<path fill="#e89c18" style="fill: var(--color1, #e89c18)" d="M16 0c8.837 0 16 7.163 16 16s-7.163 16-16 16c-8.837 0-16-7.163-16-16s7.163-16 16-16z"></path>
<path fill="#000" style="fill: var(--color2, #000)" d="M16.8 22.4v-5.6h2.4l0.4-2.4h-2.8v-1.2c0-0.8 0.401-1.2 1.2-1.2h1.2v-2.4c-0.4 0-1.296 0-2 0-2 0-2.8 1.2-2.8 3.2v1.6h-2.4v2.4h2.4v5.6h2.4z"></path>
</symbol>
<symbol id="icon-telegram" viewBox="0 0 32 32">
<path fill="#e89c18" style="fill: var(--color1, #e89c18)" d="M16 0c8.837 0 16 7.163 16 16s-7.163 16-16 16c-8.837 0-16-7.163-16-16s7.163-16 16-16z"></path>
<path fill="none" stroke="#000" style="stroke: var(--color2, #000)" stroke-linejoin="miter" stroke-linecap="round" stroke-miterlimit="10" stroke-width="1.6" d="M10.634 18.138l8.794-4.3c0.009-0.004 0.020-0.004 0.029-0.001s0.018 0.009 0.024 0.018 0.008 0.019 0.007 0.029c-0.001 0.010-0.006 0.019-0.013 0.026l-6.931 5.616c-0.075 0.060-0.135 0.136-0.177 0.223s-0.063 0.181-0.064 0.277v2.753c-0 0.022 0.006 0.044 0.017 0.064s0.027 0.036 0.046 0.047c0.019 0.011 0.041 0.018 0.064 0.018s0.044-0.005 0.064-0.016l2.422-1.344 2.141 1.5c0.030 0.021 0.063 0.035 0.099 0.042s0.072 0.007 0.107-0.001c0.035-0.008 0.069-0.023 0.098-0.045s0.053-0.049 0.071-0.081l7.719-13.106c0.009-0.017 0.013-0.036 0.011-0.056s-0.010-0.037-0.022-0.052c-0.012-0.015-0.029-0.025-0.048-0.031s-0.038-0.005-0.057 0.001l-17.216 6.369c-0.044 0.017-0.082 0.045-0.111 0.082s-0.048 0.081-0.054 0.127 0.001 0.094 0.019 0.137c0.019 0.043 0.049 0.080 0.087 0.108l2.222 1.562c0.096 0.064 0.207 0.1 0.322 0.106s0.229-0.019 0.331-0.072v0z"></path>
</symbol>
<symbol id="icon-linkedin" viewBox="0 0 32 32">
<path fill="#e89c18" style="fill: var(--color1, #e89c18)" d="M16 0c8.837 0 16 7.163 16 16s-7.163 16-16 16c-8.837 0-16-7.163-16-16s7.163-16 16-16z"></path>
<path fill="#000" style="fill: var(--color2, #000)" d="M12.4 13.2h-2.8v9.2h2.8v-9.2z"></path>
<path fill="#000" style="fill: var(--color2, #000)" d="M19.201 13.2c-1.601 0-2.045 0.525-2.401 1.2v-1.2h-2.8v9.2h2.8v-5.2c0-0.8 0-1.6 1.4-1.6s1.4 0.8 1.4 1.6v5.2h2.8v-5.2c0-2.4-0.4-4-3.199-4z"></path>
<path fill="#000" style="fill: var(--color2, #000)" d="M11 12.4c0.773 0 1.4-0.627 1.4-1.4s-0.627-1.4-1.4-1.4c-0.773 0-1.4 0.627-1.4 1.4s0.627 1.4 1.4 1.4z"></path>
</symbol>
</defs>
</svg>
