<svg aria-hidden="true" style="position: absolute; width: 0; height: 0; overflow: hidden;" version="1.1" xmlns="http://www.w3.org/2000/svg" xmlns:xlink="http://www.w3.org/1999/xlink">
<defs>
<symbol id="icon-rh-logo" viewBox="0 0 143 32">
<path fill="#e89c18" style="fill: var(--color1, #e89c18)" d="M60.47 8.364l79.579-8.364 2.484 23.635-79.579 8.364-2.484-23.635z"></path>
<path fill="#000105" style="fill: var(--color2, #000105)" opacity="0.2" d="M61.138 6.083l80.017-2.401 0.713 23.766-80.017 2.401-0.713-23.766z"></path>
<path fill="#ffaa17" style="fill: var(--color3, #ffaa17)" d="M61.493 4.117h80.017v23.766h-80.017v-23.766z"></path>
<path fill="#fff" style="fill: var(--color4, #fff)" d="M129.438 22.688q-2.076 0-3.095-0.992-0.999-1.009-1.076-3.188l2.738-0.374q0.018 1.252 0.322 1.806c0.181 0.324 0.521 0.539 0.912 0.539 0.013 0 0.026-0 0.039-0.001l-0.002 0q0.805 0 0.805-0.96c0-0.017 0.001-0.037 0.001-0.058 0-0.471-0.148-0.908-0.399-1.267l0.005 0.007q-0.376-0.553-1.199-1.187l-1.253-0.997q-0.931-0.716-1.45-1.513-0.5-0.813-0.5-1.922 0-1.659 1.076-2.554 1.092-0.895 2.988-0.895 2.058 0 2.791 1.089 0.752 1.091 0.805 2.652l-2.755 0.307q-0.035-1.024-0.214-1.461-0.161-0.455-0.734-0.455c-0.008-0-0.017-0-0.026-0-0.255 0-0.481 0.128-0.615 0.323l-0.002 0.002c-0.135 0.191-0.215 0.428-0.215 0.684 0 0.006 0 0.011 0 0.017v-0.001q0 0.667 0.322 1.122 0.341 0.455 1.076 1.041l1.199 0.959q1.076 0.83 1.664 1.757t0.587 2.198c0 0.008 0 0.017 0 0.027 0 0.618-0.18 1.193-0.491 1.677l0.007-0.012c-0.326 0.509-0.774 0.914-1.305 1.178l-0.019 0.009q-0.858 0.443-1.986 0.443zM119.029 14.91q0.966 0 1.342-0.455 0.393-0.472 0.394-1.399 0-0.895-0.358-1.334-0.358-0.455-1.235-0.455h-1.037v3.643zM114.934 9.312h3.991q2.379 0 3.596 0.764t1.217 2.717q0 1.317-0.376 2.098t-1.396 1.22l1.987 6.381h-3.31l-1.592-5.905h-0.913v5.905h-3.204zM106.931 9.312h6.513v1.984h-3.31v3.27h2.523v2.017h-2.523v3.936h3.347v1.969h-6.549zM100.985 14.858q0.84 0 1.109-0.407 0.286-0.407 0.287-1.367 0-0.878-0.269-1.301t-1.145-0.423h-1.056v3.497zM96.706 9.312h4.867q1.914 0 2.863 0.992 0.949 0.976 0.949 2.831 0 2.115-1.109 2.944-1.092 0.813-3.075 0.813h-1.288v5.596h-3.207zM88.773 9.312h3.203v11.21h3.329v1.969h-6.535zM80.77 9.312h6.513v1.984h-3.31v3.27h2.523v2.017h-2.523v3.936h3.347v1.969h-6.549zM69.902 9.312h3.203v5.335h2.236v-5.335h3.22v13.179h-3.22v-5.759h-2.237v5.759h-3.203z"></path>
<path fill="#3f3f3f" style="fill: var(--color5, #3f3f3f)" d="M49.644 9.312h6.513v1.984h-3.31v3.27h2.523v2.017h-2.523v3.936h3.346v1.969h-6.549zM42.982 11.475h-2.183v-2.163h7.569v2.163h-2.164v11.016h-3.221zM35.483 20.617c0.454 0 0.751-0.135 0.895-0.407s0.217-0.658 0.217-1.135v-6.345q0-0.733-0.215-1.139c-0.144-0.271-0.441-0.407-0.895-0.407q-0.644 0-0.859 0.423-0.215 0.407-0.215 1.122v6.345q0 0.716 0.197 1.139 0.194 0.406 0.875 0.406zM35.483 22.488q-2.344 0-3.347-1.060-0.999-1.076-0.999-3.164v-4.758q0-2.089 0.999-3.132 0.999-1.062 3.347-1.062 2.362 0 3.364 1.059 1.019 1.059 1.019 3.132v4.761q0 2.089-1.019 3.164-1.002 1.062-3.364 1.063zM18.929 9.312h3.436l1.592 7.662 1.721-7.662h3.306l0.251 13.176h-2.273l-0.269-8.764-1.681 8.768h-2.022l-1.79-8.833-0.211 8.833h-2.306zM10.729 9.312h6.513v1.984h-3.31v3.27h2.52v2.017h-2.52v3.936h3.347v1.969h-6.549zM4.098 14.91q0.966 0 1.342-0.455 0.394-0.472 0.394-1.399 0-0.895-0.358-1.334-0.357-0.455-1.235-0.455h-1.038v3.643zM0 9.312h3.99q2.383 0 3.597 0.764t1.216 2.717q0 1.317-0.375 2.098t-1.396 1.22l1.987 6.381h-3.31l-1.593-5.905h-0.913v5.905h-3.203z"></path>
</symbol>
</defs>
</svg>
