<svg aria-hidden="true" style="position: absolute; width: 0; height: 0; overflow: hidden;" version="1.1" xmlns="http://www.w3.org/2000/svg" xmlns:xlink="http://www.w3.org/1999/xlink">
<defs>
<symbol id="icon-design" viewBox="0 0 27 32">
<path d="M21.667 25.6c-0.307 0-0.556 0.239-0.556 0.533v1.067c0 0.294 0.249 0.533 0.556 0.533s0.556-0.239 0.556-0.533v-1.067c0-0.294-0.249-0.533-0.556-0.533zM22.222 19.733c0-0.294-0.249-0.533-0.556-0.533s-0.556 0.239-0.556 0.533v4.267c0 0.294 0.249 0.533 0.556 0.533s0.556-0.239 0.556-0.533v-4.267zM25.556 13.867h-24.444c-0.613 0-1.111 0.478-1.111 1.067v2.133c0 0.588 0.498 1.067 1.111 1.067v11.2c0 1.47 1.246 2.667 2.778 2.667h18.889c1.532 0 2.778-1.196 2.778-2.667v-9.6c0-0.294-0.249-0.533-0.556-0.533s-0.556 0.239-0.556 0.533v9.6c0 0.882-0.748 1.6-1.667 1.6h-18.889c-0.919 0-1.667-0.718-1.667-1.6v-11.733c0-0.294-0.249-0.533-0.556-0.533h-0.556v-2.133h24.444v2.133h-21.667c-0.307 0-0.556 0.239-0.556 0.533s0.249 0.533 0.556 0.533h21.667c0.613 0 1.111-0.478 1.111-1.067v-2.133c0-0.588-0.498-1.067-1.111-1.067zM12.222 8.782v3.485c0 0.294 0.249 0.533 0.556 0.533s0.556-0.239 0.556-0.533v-3.733c0-0.167-0.083-0.326-0.223-0.427-0.564-0.407-0.888-1.029-0.888-1.706 0-1.342 1.345-3.618 2.222-4.916 0.877 1.298 2.222 3.574 2.222 4.916 0 1.014-0.75 1.893-1.783 2.092-0.301 0.058-0.497 0.339-0.436 0.627s0.353 0.475 0.653 0.419c1.551-0.297 2.677-1.617 2.677-3.138 0-2.278-2.764-6.019-2.881-6.177-0.209-0.281-0.696-0.281-0.904 0-0.117 0.158-2.881 3.899-2.881 6.177 0 0.914 0.394 1.762 1.111 2.382zM1.667 12.8h1.111c0.307 0 0.556-0.239 0.556-0.533s-0.249-0.533-0.556-0.533h-0.556v-1.067h2.778c0.307 0 0.556-0.239 0.556-0.533s-0.249-0.533-0.556-0.533h-2.778v-1.067h0.556c0.307 0 0.556-0.239 0.556-0.533s-0.249-0.533-0.556-0.533h-0.556v-1.067h0.556c0.307 0 0.556-0.239 0.556-0.533s-0.249-0.533-0.556-0.533h-0.556v-1.067h2.778c0.307 0 0.556-0.239 0.556-0.533s-0.249-0.533-0.556-0.533h-2.778v-2.133h6.667v11.2c0 0.294 0.249 0.533 0.556 0.533s0.556-0.239 0.556-0.533v-11.733c0-0.294-0.249-0.533-0.556-0.533h-7.778c-0.307 0-0.556 0.239-0.556 0.533v11.733c0 0.294 0.249 0.533 0.556 0.533zM21.667 6.933v5.333c0 0.294 0.249 0.533 0.556 0.533s0.556-0.239 0.556-0.533v-5.333c0-0.294-0.249-0.533-0.556-0.533s-0.556 0.239-0.556 0.533zM25 6.4c-0.307 0-0.556 0.239-0.556 0.533v5.333c0 0.294 0.249 0.533 0.556 0.533s0.556-0.239 0.556-0.533v-5.333c0-0.294-0.249-0.533-0.556-0.533zM19.444 12.8c0.307 0 0.556-0.239 0.556-0.533v-7.314l2.222-3.413 1.776 2.727h-2.331c-0.307 0-0.556 0.239-0.556 0.533s0.249 0.533 0.556 0.533h3.333c0.202 0 0.388-0.105 0.486-0.275s0.092-0.377-0.015-0.541l-2.778-4.267c-0.203-0.312-0.739-0.312-0.942 0l-2.778 4.267c-0.055 0.085-0.084 0.182-0.084 0.283v7.467c0 0.294 0.249 0.533 0.556 0.533zM16.667 10.667v1.6c0 0.294-0.249 0.533-0.556 0.533s-0.556-0.239-0.556-0.533v-1.6c0-0.294 0.249-0.533 0.556-0.533s0.556 0.239 0.556 0.533z"></path>
</symbol>
<symbol id="icon-marketing" viewBox="0 0 32 32">
<path d="M25.6 12.8c0-5.593-3.579-10.494-8.904-12.194-0.281-0.091-0.581 0.065-0.671 0.345s0.066 0.581 0.346 0.67c4.882 1.559 8.162 6.052 8.162 11.179 0 6.47-5.263 11.733-11.733 11.733s-11.733-5.263-11.733-11.733c0-5.127 3.28-9.62 8.162-11.179 0.281-0.090 0.436-0.389 0.346-0.67s-0.391-0.438-0.67-0.346c-5.326 1.7-8.905 6.601-8.905 12.194 0 7.058 5.742 12.8 12.8 12.8s12.8-5.742 12.8-12.8zM4.081 7.612c-0.26-0.138-0.583-0.038-0.721 0.222-0.803 1.518-1.227 3.236-1.227 4.966 0 5.882 4.785 10.667 10.667 10.667s10.667-4.785 10.667-10.667c0-4.396-2.644-8.286-6.737-9.91-0.273-0.108-0.584 0.026-0.693 0.299-0.108 0.274 0.026 0.584 0.299 0.693 3.683 1.462 6.063 4.963 6.063 8.918 0 5.293-4.307 9.6-9.6 9.6s-9.6-4.307-9.6-9.6c0-1.557 0.381-3.101 1.103-4.467 0.138-0.26 0.038-0.583-0.222-0.721zM19.733 17.067c0.295 0 0.533-0.238 0.533-0.533v-7.467c0-0.295-0.238-0.533-0.533-0.533h-3.2c-0.294 0-0.533 0.238-0.533 0.533v10.667c0 0.295 0.239 0.533 0.533 0.533s0.533-0.238 0.533-0.533v-10.133h2.133v6.933c0 0.295 0.238 0.533 0.533 0.533zM11.2 21.333c0.294 0 0.533-0.238 0.533-0.533v-19.733h2.133v19.733c0 0.295 0.239 0.533 0.533 0.533s0.533-0.238 0.533-0.533v-20.267c0-0.295-0.239-0.533-0.533-0.533h-3.2c-0.294 0-0.533 0.238-0.533 0.533v20.267c0 0.295 0.239 0.533 0.533 0.533zM9.067 4.267h-3.2c-0.294 0-0.533 0.238-0.533 0.533v11.733c0 0.295 0.239 0.533 0.533 0.533s0.533-0.238 0.533-0.533v-11.2h2.133v14.4c0 0.295 0.239 0.533 0.533 0.533s0.533-0.238 0.533-0.533v-14.933c0-0.295-0.239-0.533-0.533-0.533zM24.145 21.128c-0.208 0.209-0.208 0.546 0 0.754l1.132 1.132c0.104 0.105 0.241 0.156 0.377 0.156s0.273-0.052 0.377-0.156c0.208-0.208 0.208-0.546 0-0.754l-1.131-1.132c-0.209-0.208-0.546-0.208-0.755 0zM32 29.333c0 0.713-0.278 1.382-0.781 1.885-0.519 0.521-1.203 0.78-1.886 0.78s-1.365-0.26-1.885-0.78l-6.32-6.319c-0.208-0.209-0.208-0.546 0-0.755s0.546-0.208 0.754 0l6.32 6.32c0.625 0.623 1.639 0.623 2.262-0.001 0.302-0.302 0.469-0.703 0.469-1.131s-0.166-0.829-0.469-1.131l-3.359-3.359-1.127 1.133c-0.208 0.209-0.545 0.211-0.754 0.002s-0.21-0.545-0.002-0.754l1.504-1.513c0.1-0.1 0.236-0.157 0.378-0.157h0.001c0.142 0 0.277 0.057 0.377 0.156l3.738 3.738c0.503 0.503 0.781 1.173 0.781 1.885z"></path>
</symbol>
<symbol id="icon-media" viewBox="0 0 32 32">
<path d="M10.667 11.733c0-0.588-0.478-1.067-1.067-1.067s-1.067 0.478-1.067 1.067c0 0.588 0.478 1.067 1.067 1.067s1.067-0.478 1.067-1.067zM14.4 8.533h-7.467c-0.294 0-0.533 0.238-0.533 0.533v6.4c0 0.295 0.239 0.533 0.533 0.533h1.067c0.294 0 0.533-0.238 0.533-0.533s-0.239-0.533-0.533-0.533h-0.533v-5.333h6.4v4.579l-1.223-1.223c-0.209-0.209-0.546-0.209-0.754 0l-2.133 2.133c-0.209 0.209-0.209 0.546 0 0.754s0.546 0.209 0.754 0l1.756-1.756 1.756 1.756c0.102 0.102 0.238 0.156 0.377 0.156 0.069 0 0.138-0.013 0.204-0.041 0.199-0.082 0.329-0.277 0.329-0.493v-6.4c0-0.295-0.239-0.533-0.533-0.533zM25.067 18.133h-4.267c-0.294 0-0.533 0.238-0.533 0.533s0.239 0.533 0.533 0.533h4.267c0.294 0 0.533-0.238 0.533-0.533s-0.239-0.533-0.533-0.533zM17.6 16h6.4c0.294 0 0.533-0.238 0.533-0.533s-0.239-0.533-0.533-0.533h-6.4c-0.294 0-0.533 0.238-0.533 0.533s0.239 0.533 0.533 0.533zM22.933 8.533h-5.333c-0.294 0-0.533 0.238-0.533 0.533s0.239 0.533 0.533 0.533h5.333c0.294 0 0.533-0.238 0.533-0.533s-0.239-0.533-0.533-0.533zM25.067 11.733h-3.2c-0.294 0-0.533 0.238-0.533 0.533s0.239 0.533 0.533 0.533h3.2c0.294 0 0.533-0.238 0.533-0.533s-0.239-0.533-0.533-0.533zM17.6 12.8h2.133c0.294 0 0.533-0.238 0.533-0.533s-0.239-0.533-0.533-0.533h-2.133c-0.294 0-0.533 0.238-0.533 0.533s0.239 0.533 0.533 0.533zM14.933 18.667c0 0.295 0.239 0.533 0.533 0.533h3.2c0.294 0 0.533-0.238 0.533-0.533s-0.239-0.533-0.533-0.533h-3.2c-0.294 0-0.533 0.238-0.533 0.533zM6.933 19.2h6.4c0.294 0 0.533-0.238 0.533-0.533s-0.239-0.533-0.533-0.533h-6.4c-0.294 0-0.533 0.238-0.533 0.533s0.239 0.533 0.533 0.533zM17.977 28.956c-0.209-0.209-0.546-0.209-0.754 0s-0.209 0.546 0 0.754l2.133 2.133c0.104 0.104 0.241 0.156 0.377 0.156s0.273-0.052 0.377-0.156c0.209-0.209 0.209-0.546 0-0.754l-2.133-2.133zM16 25.6c-0.294 0-0.533 0.238-0.533 0.533v1.379l-3.577 3.577c-0.209 0.209-0.209 0.546 0 0.754 0.104 0.104 0.241 0.156 0.377 0.156s0.273-0.052 0.377-0.156l3.733-3.733c0.1-0.1 0.156-0.235 0.156-0.377v-1.6c0-0.295-0.239-0.533-0.533-0.533zM32 1.6v2.133c0 0.295-0.239 0.533-0.533 0.533h-0.533v17.6c0 1.47-1.196 2.667-2.667 2.667h-24.533c-1.47 0-2.667-1.196-2.667-2.667v-16c0-0.295 0.239-0.533 0.533-0.533s0.533 0.238 0.533 0.533v16c0 0.882 0.718 1.6 1.6 1.6h24.533c0.882 0 1.6-0.718 1.6-1.6v-18.133c0-0.295 0.239-0.533 0.533-0.533h0.533v-1.067h-29.867v1.067h27.2c0.294 0 0.533 0.238 0.533 0.533s-0.239 0.533-0.533 0.533h-27.733c-0.294 0-0.533-0.238-0.533-0.533v-2.133c0-0.295 0.239-0.533 0.533-0.533h14.933v-0.533c0-0.295 0.239-0.533 0.533-0.533s0.533 0.238 0.533 0.533v0.533h14.933c0.294 0 0.533 0.238 0.533 0.533z"></path>
</symbol>
<symbol id="icon-sales" viewBox="0 0 32 32">
<path d="M13.976 14.023c-0.209 0.209-0.209 0.546 0 0.754l3.2 3.2c0.104 0.104 0.241 0.156 0.377 0.156s0.273-0.052 0.377-0.156c0.209-0.209 0.209-0.546 0-0.754l-3.2-3.2c-0.209-0.209-0.546-0.209-0.754 0zM12.597 16.156c-0.209-0.209-0.546-0.209-0.754 0s-0.209 0.546 0 0.754l3.2 3.2c0.104 0.104 0.241 0.156 0.377 0.156s0.273-0.052 0.377-0.156c0.209-0.209 0.209-0.546 0-0.754l-3.2-3.2zM10.463 18.29c-0.209-0.209-0.546-0.209-0.754 0s-0.209 0.546 0 0.754l3.2 3.2c0.104 0.104 0.241 0.156 0.377 0.156s0.273-0.052 0.377-0.156c0.209-0.209 0.209-0.546 0-0.754l-3.2-3.2zM20.532 17.067l-5.646-5.646-7.779 7.779 5.646 5.646 7.779-7.779zM15.263 10.29l6.4 6.4c0.209 0.209 0.209 0.546 0 0.754l-8.533 8.533c-0.104 0.104-0.241 0.156-0.377 0.156s-0.273-0.052-0.377-0.156l-6.4-6.4c-0.209-0.209-0.209-0.546 0-0.754l8.533-8.533c0.209-0.209 0.546-0.209 0.754 0zM27.673 19.507c-0.255-0.15-0.581-0.064-0.73 0.19l-6.113 10.427c-0.442 0.764-1.422 1.027-2.163 0.601l-1.191-0.772c-0.246-0.161-0.577-0.090-0.737 0.157s-0.090 0.578 0.157 0.738l1.214 0.787c0.419 0.242 0.877 0.356 1.329 0.356 0.922 0 1.82-0.477 2.312-1.33l6.111-10.424c0.149-0.254 0.064-0.58-0.19-0.73zM31.953 2.667v8.533c0 1.65-0.525 2.879-1.756 4.11l-15.839 15.861c-0.504 0.504-1.174 0.781-1.886 0.781s-1.382-0.277-1.885-0.781l-9.805-9.805c-0.504-0.504-0.781-1.174-0.781-1.886s0.277-1.382 0.781-1.885l13.853-13.834c-3.622-0.823-5.87-0.879-6.529-0.686 0.278 0.284 1.143 0.888 3.233 1.711 0.274 0.108 0.409 0.418 0.301 0.692s-0.418 0.407-0.692 0.301c-4.324-1.705-4.071-2.65-3.976-3.005 0.198-0.741 1.254-0.988 3.419-0.799 1.763 0.154 4.038 0.589 6.406 1.223s4.555 1.396 6.158 2.144c1.971 0.919 2.761 1.66 2.562 2.402-0.192 0.716-1.19 0.803-1.518 0.832-0.015 0.002-0.031 0.002-0.047 0.002-0.274 0-0.506-0.21-0.531-0.487-0.026-0.293 0.191-0.552 0.485-0.578 0.227-0.020 0.378-0.051 0.476-0.078-0.228-0.238-0.806-0.61-1.73-1.053-0.194 0.326-0.299 0.701-0.299 1.085 0 1.177 0.957 2.133 2.133 2.133s2.133-0.957 2.133-2.133c0-1.177-0.957-2.133-2.133-2.133-0.295 0-0.533-0.238-0.533-0.533s0.238-0.533 0.533-0.533c1.765 0 3.2 1.435 3.2 3.2s-1.435 3.2-3.2 3.2c-1.765 0-3.2-1.435-3.2-3.2 0-0.535 0.141-1.056 0.392-1.521-1.276-0.536-2.988-1.136-5.158-1.718-0.229-0.061-0.449-0.117-0.669-0.173l-14.316 14.295c-0.302 0.302-0.469 0.704-0.469 1.131 0 0.428 0.166 0.829 0.469 1.132l9.805 9.805c0.604 0.604 1.658 0.604 2.262 0l15.839-15.861c1.039-1.039 1.444-1.98 1.444-3.356v-8.533c0-0.882-0.718-1.6-1.6-1.6h-8.533c-1.376 0-2.317 0.405-3.356 1.444-0.209 0.209-0.546 0.209-0.754 0s-0.209-0.546 0-0.754c1.231-1.231 2.46-1.756 4.11-1.756h8.533c1.47 0 2.667 1.196 2.667 2.667z"></path>
</symbol>
<symbol id="icon-video-editors" viewBox="0 0 32 32">
<path d="M13.867 18.805v-5.61l4.809 2.805-4.809 2.805zM13.602 11.806c-0.165-0.095-0.369-0.097-0.534-0.002s-0.268 0.271-0.268 0.462v7.467c0 0.191 0.102 0.367 0.268 0.462 0.082 0.047 0.174 0.071 0.266 0.071 0.093 0 0.186-0.025 0.269-0.073l6.4-3.733c0.164-0.095 0.265-0.271 0.265-0.461s-0.1-0.365-0.265-0.461l-6.4-3.733zM29.333 30.933h-2.667v-4.267h4.267v2.667c0 0.883-0.718 1.6-1.6 1.6zM26.667 25.6v-3.2h4.267v3.2h-4.267zM26.667 8.533v-3.2h4.267v3.2h-4.267zM26.667 21.333v-3.2h4.267v3.2h-4.267zM26.667 17.067v-3.2h4.267v3.2h-4.267zM26.667 12.8v-3.2h4.267v3.2h-4.267zM29.333-0h-21.333c-0.295 0-0.533 0.238-0.533 0.533s0.238 0.533 0.533 0.533h21.333c0.882 0 1.6 0.718 1.6 1.6v1.6h-4.267v-1.6c0-0.295-0.238-0.533-0.533-0.533s-0.533 0.238-0.533 0.533v22.933h-17.6c-0.295 0-0.533 0.238-0.533 0.533s0.238 0.533 0.533 0.533h17.6v4.8c0 0.295 0.238 0.533 0.533 0.533h3.2c1.47 0 2.667-1.196 2.667-2.667v-26.667c0-1.47-1.196-2.667-2.667-2.667zM2.667 1.067h2.667v3.2h-4.267v-1.6c0-0.882 0.718-1.6 1.6-1.6zM1.067 8.533v-3.2h4.267v3.2h-4.267zM1.067 25.6v-3.2h4.267v3.2h-4.267zM1.067 12.8v-3.2h4.267v3.2h-4.267zM1.067 17.067v-3.2h4.267v3.2h-4.267zM1.067 21.333v-3.2h4.267v3.2h-4.267zM24 30.933h-21.333c-0.882 0-1.6-0.717-1.6-1.6v-2.667h4.267v2.667c0 0.295 0.238 0.533 0.533 0.533s0.533-0.238 0.533-0.533v-24h17.6c0.295 0 0.533-0.238 0.533-0.533s-0.238-0.533-0.533-0.533h-17.6v-3.733c0-0.295-0.238-0.533-0.533-0.533h-3.2c-1.47 0-2.667 1.196-2.667 2.667v26.667c0 1.47 1.196 2.667 2.667 2.667h21.333c0.295 0 0.533-0.238 0.533-0.533s-0.238-0.533-0.533-0.533z"></path>
</symbol>
<symbol id="icon-virtual-assistance" viewBox="0 0 32 32">
<path d="M11.429 14.4c0 0.294 0.256 0.533 0.571 0.533s0.571-0.239 0.571-0.533c0-0.294-0.256-0.533-0.571-0.533s-0.571 0.239-0.571 0.533zM12.571 24c0-0.294-0.256-0.533-0.571-0.533s-0.571 0.239-0.571 0.533c0 0.294 0.256 0.533 0.571 0.533s0.571-0.239 0.571-0.533zM8 14.4c0-0.294-0.256-0.533-0.571-0.533s-0.571 0.239-0.571 0.533 0.256 0.533 0.571 0.533c0.315 0 0.571-0.239 0.571-0.533zM8 20.8c0-0.294-0.256-0.533-0.571-0.533s-0.571 0.239-0.571 0.533 0.256 0.533 0.571 0.533c0.315 0 0.571-0.239 0.571-0.533zM11.429 9.067c0 0.294 0.256 0.533 0.571 0.533s0.571-0.239 0.571-0.533c0-0.294-0.256-0.533-0.571-0.533s-0.571 0.239-0.571 0.533zM8 9.6v3.298c0.485 0.161 0.865 0.517 1.037 0.969h1.354c0.237-0.62 0.865-1.067 1.609-1.067 0.945 0 1.714 0.718 1.714 1.6 0 0.694-0.479 1.281-1.143 1.502v6.596c0.663 0.221 1.143 0.807 1.143 1.502s-0.479 1.281-1.143 1.502v1.698c0 0.294-0.255 0.533-0.571 0.533s-0.571-0.239-0.571-0.533v-1.699c-0.583-0.194-1.018-0.67-1.116-1.256l-2.145-2.002c-0.002-0.001-0.002-0.003-0.003-0.005-0.223 0.1-0.471 0.161-0.735 0.161-0.945 0-1.714-0.718-1.714-1.6s0.769-1.6 1.714-1.6c0.945 0 1.714 0.718 1.714 1.6 0 0.246-0.065 0.478-0.173 0.686 0.002 0.002 0.003 0.002 0.005 0.003l1.661 1.551c0.201-0.247 0.474-0.436 0.792-0.542v-6.597c-0.485-0.161-0.865-0.516-1.037-0.968h-1.354c-0.237 0.62-0.865 1.067-1.609 1.067-0.945 0-1.714-0.718-1.714-1.6 0-0.694 0.479-1.281 1.143-1.502v-3.831c0-0.294 0.255-0.533 0.571-0.533h2.963c0.172-0.452 0.553-0.807 1.037-0.969v-1.698c0-0.294 0.255-0.533 0.571-0.533s0.571 0.239 0.571 0.533v1.698c0.663 0.221 1.143 0.807 1.143 1.502 0 0.882-0.769 1.6-1.714 1.6-0.744 0-1.372-0.447-1.609-1.067h-2.391zM30.647 19.864c0.851-0.698 1.353-1.708 1.353-2.797 0-1.141-0.543-2.19-1.477-2.894 0.22-0.428 0.334-0.895 0.334-1.373 0-1.101-0.619-2.115-1.595-2.693 0.295-0.479 0.453-1.020 0.453-1.573 0-1.376-0.937-2.572-2.292-3.014 0.004-0.062 0.006-0.124 0.006-0.186 0-1.765-1.538-3.2-3.429-3.2-0.461 0-0.91 0.087-1.33 0.256-0.491-1.389-1.905-2.389-3.527-2.389-2.405 0-3.474 2.025-3.703 3.095-0.004 0.018 0.001 0.035 0 0.053s-0.011 0.033-0.011 0.052v25.035c-0.129 1.514-1.507 2.699-3.143 2.699-1.63 0-3.004-1.189-3.128-2.707-0.023-0.278-0.288-0.493-0.586-0.493-0.178 0-0.346 0.078-0.455 0.21-0.443 0.545-1.111 0.857-1.831 0.857-1.261 0-2.286-0.957-2.286-2.133 0-0.484 0.181-0.947 0.523-1.339 0.154-0.177 0.171-0.426 0.042-0.619s-0.374-0.29-0.615-0.237c-0.191 0.042-0.362 0.062-0.522 0.062-1.261 0-2.286-0.957-2.286-2.133 0-0.879 0.598-1.679 1.488-1.991 0.212-0.074 0.357-0.258 0.37-0.468s-0.108-0.409-0.308-0.506c-0.957-0.46-1.55-1.369-1.55-2.369 0-0.941 0.518-1.794 1.387-2.283 0.135-0.076 0.231-0.202 0.264-0.346s-0.001-0.295-0.091-0.417c-0.273-0.363-0.417-0.785-0.417-1.221 0-0.886 0.605-1.687 1.503-1.995 0.178-0.061 0.312-0.2 0.358-0.371s-0.003-0.354-0.129-0.485c-0.381-0.396-0.59-0.899-0.59-1.415 0-1.034 0.794-1.914 1.886-2.094 0.153-0.026 0.29-0.108 0.376-0.229s0.116-0.27 0.083-0.412c-0.040-0.166-0.059-0.318-0.059-0.465 0-1.177 1.025-2.133 2.286-2.133 0.495 0 0.972 0.154 1.381 0.446 0.166 0.118 0.389 0.143 0.579 0.064 0.191-0.079 0.321-0.25 0.338-0.444 0.109-1.233 1.233-2.199 2.559-2.199 0.637 0 1.163 0.191 1.609 0.583 0.23 0.202 0.592 0.192 0.808-0.022s0.206-0.551-0.023-0.754c-0.659-0.58-1.464-0.874-2.393-0.874-1.623 0-3.036 1.001-3.527 2.389-0.419-0.169-0.869-0.256-1.33-0.256-1.891 0-3.429 1.435-3.429 3.2 0 0.062 0.002 0.124 0.006 0.186-1.355 0.442-2.292 1.638-2.292 3.014 0 0.553 0.158 1.094 0.453 1.573-0.977 0.579-1.595 1.593-1.595 2.693 0 0.478 0.114 0.945 0.334 1.373-0.934 0.704-1.477 1.753-1.477 2.894 0 1.089 0.502 2.099 1.353 2.797-0.835 0.596-1.353 1.531-1.353 2.536 0 1.65 1.345 3.012 3.065 3.182-0.137 0.346-0.207 0.71-0.207 1.085 0 1.765 1.538 3.2 3.429 3.2 0.71 0 1.385-0.201 1.952-0.57 0.583 1.575 2.194 2.703 4.048 2.703 2.233 0 4.115-1.622 4.284-3.693 0.001-0.007-0.003-0.013-0.003-0.020s0.005-0.013 0.005-0.020v-25.008c0.085-0.327 0.649-2.192 2.571-2.192 1.326 0 2.451 0.966 2.559 2.199 0.018 0.194 0.147 0.364 0.338 0.444 0.19 0.079 0.413 0.054 0.579-0.064 0.409-0.292 0.886-0.446 1.381-0.446 1.261 0 2.286 0.957 2.286 2.133 0 0.146-0.019 0.298-0.059 0.465-0.033 0.142-0.003 0.291 0.083 0.412s0.223 0.204 0.376 0.229c1.093 0.18 1.886 1.061 1.886 2.094 0 0.516-0.209 1.019-0.59 1.415-0.126 0.132-0.175 0.314-0.129 0.485s0.181 0.31 0.358 0.371c0.899 0.308 1.503 1.109 1.503 1.995 0 0.436-0.144 0.858-0.417 1.221-0.091 0.121-0.124 0.271-0.091 0.417s0.129 0.27 0.264 0.346c0.869 0.489 1.387 1.342 1.387 2.283 0 1.001-0.594 1.909-1.55 2.369-0.2 0.097-0.321 0.295-0.308 0.506s0.158 0.394 0.37 0.468c0.89 0.311 1.488 1.111 1.488 1.991 0 1.177-1.025 2.133-2.286 2.133-0.159 0-0.33-0.020-0.522-0.062-0.24-0.053-0.485 0.043-0.615 0.237s-0.113 0.443 0.042 0.619c0.343 0.392 0.523 0.855 0.523 1.339 0 1.177-1.025 2.133-2.286 2.133-0.722 0-1.389-0.316-1.827-0.867-0.147-0.184-0.404-0.259-0.638-0.188-0.085 0.026-0.159 0.069-0.219 0.124-0.106 0.089-0.177 0.214-0.188 0.356-0.124 1.518-1.498 2.707-3.128 2.707-0.718 0-1.396-0.22-1.96-0.637-0.249-0.183-0.607-0.143-0.803 0.087s-0.154 0.566 0.093 0.749c0.757 0.559 1.706 0.867 2.67 0.867 1.855 0 3.467-1.13 4.049-2.707 0.565 0.371 1.239 0.573 1.951 0.573 1.891 0 3.429-1.435 3.429-3.2 0-0.374-0.070-0.739-0.207-1.085 1.72-0.17 3.065-1.532 3.065-3.182 0-1.005-0.518-1.94-1.353-2.536zM20.571 24c0 0.294 0.255 0.533 0.571 0.533 0.833 0 1.714 0.822 1.714 1.6 0 0.294 0.255 0.533 0.571 0.533s0.571-0.239 0.571-0.533c0-1.371-1.389-2.667-2.857-2.667-0.316 0-0.571 0.239-0.571 0.533zM25.714 9.6c-0.833 0-1.714-0.822-1.714-1.6 0-0.294-0.255-0.533-0.571-0.533s-0.571 0.239-0.571 0.533c0 1.371 1.389 2.667 2.857 2.667 0.316 0 0.571-0.239 0.571-0.533s-0.255-0.533-0.571-0.533zM18.857 21.333c0.316 0 0.571-0.239 0.571-0.533 0-0.778 0.881-1.6 1.714-1.6 0.316 0 0.571-0.239 0.571-0.533s-0.255-0.533-0.571-0.533c-1.469 0-2.857 1.296-2.857 2.667 0 0.294 0.255 0.533 0.571 0.533zM21.143 14.933c0.316 0 0.571-0.239 0.571-0.533s-0.255-0.533-0.571-0.533c-0.833 0-1.714-0.822-1.714-1.6 0-0.294-0.255-0.533-0.571-0.533s-0.571 0.239-0.571 0.533c0 1.371 1.389 2.667 2.857 2.667zM26.857 12.8c-0.316 0-0.571 0.239-0.571 0.533 0 0.778-0.881 1.6-1.714 1.6-0.316 0-0.571 0.239-0.571 0.533s0.255 0.533 0.571 0.533c1.469 0 2.857-1.296 2.857-2.667 0-0.294-0.255-0.533-0.571-0.533zM24.571 19.2c-0.316 0-0.571 0.239-0.571 0.533s0.255 0.533 0.571 0.533c0.833 0 1.714 0.822 1.714 1.6 0 0.294 0.255 0.533 0.571 0.533s0.571-0.239 0.571-0.533c0-1.371-1.389-2.667-2.857-2.667zM18.286 7.467c0-1.371 1.389-2.667 2.857-2.667 0.316 0 0.571 0.239 0.571 0.533s-0.255 0.533-0.571 0.533c-0.833 0-1.714 0.822-1.714 1.6 0 0.294-0.255 0.533-0.571 0.533s-0.571-0.239-0.571-0.533z"></path>
</symbol>
<symbol id="icon-eur-1000" viewBox="0 0 32 32">
<path fill="#ffaa17" style="fill: var(--color1, #ffaa17)" d="M19.391 31.5h-6.781l-0.797-3.191c-0.525-0.179-1.045-0.395-1.552-0.645l-2.823 1.694-4.519-4.518 0.707-0.707 3.967 3.967 2.63-1.579 0.248 0.13c0.62 0.323 1.262 0.59 1.909 0.794l0.267 0.085 0.744 2.972h5.219l0.744-2.973 0.267-0.085c0.648-0.204 1.29-0.471 1.91-0.793l0.248-0.13 2.63 1.578 3.691-3.691-1.579-2.63 0.13-0.248c0.322-0.619 0.589-1.261 0.794-1.91l0.084-0.267 2.973-0.743v-5.219l-2.973-0.744-0.085-0.267c-0.204-0.648-0.471-1.29-0.793-1.909l0.887-0.462c0.305 0.586 0.564 1.191 0.773 1.803l3.191 0.797v6.781l-3.191 0.797c-0.179 0.526-0.395 1.046-0.645 1.552l1.694 2.823-4.794 4.794-2.823-1.694c-0.507 0.25-1.027 0.467-1.552 0.645l-0.797 3.191z"></path>
<path fill="#ffaa17" style="fill: var(--color1, #ffaa17)" d="M4.464 21.991c-0.304-0.585-0.564-1.191-0.773-1.803l-3.191-0.797v-6.781l3.191-0.797c0.179-0.525 0.395-1.045 0.645-1.552l-1.694-2.823 4.795-4.795 2.823 1.694c0.507-0.25 1.027-0.466 1.552-0.646l0.797-3.191h6.781l0.797 3.191c0.525 0.179 1.045 0.395 1.552 0.646l2.823-1.694 4.519 4.519-0.707 0.707-3.967-3.967-2.63 1.579-0.248-0.13c-0.62-0.323-1.262-0.59-1.91-0.793l-0.267-0.084-0.744-2.972h-5.219l-0.744 2.973-0.267 0.085c-0.648 0.204-1.29 0.471-1.909 0.793l-0.248 0.13-2.63-1.579-3.691 3.691 1.579 2.63-0.13 0.248c-0.322 0.62-0.589 1.262-0.793 1.909l-0.085 0.267-2.973 0.743v5.219l2.973 0.743 0.084 0.267c0.205 0.648 0.472 1.291 0.794 1.91l-0.886 0.462z"></path>
<path fill="#ffaa17" style="fill: var(--color1, #ffaa17)" d="M16 27c-6.066 0-11-4.934-11-11s4.934-11 11-11c6.066 0 11 4.934 11 11s-4.934 11-11 11zM16 6c-5.514 0-10 4.486-10 10s4.486 10 10 10c5.514 0 10-4.486 10-10s-4.486-10-10-10z"></path>
<path fill="#ffaa17" style="fill: var(--color1, #ffaa17)" d="M16.5 2.5h-1v1h1v-1z"></path>
<path fill="#ffaa17" style="fill: var(--color1, #ffaa17)" d="M6.807 6.1l-0.707 0.707 0.707 0.707 0.707-0.707-0.707-0.707z"></path>
<path fill="#ffaa17" style="fill: var(--color1, #ffaa17)" d="M3.5 15.5h-1v1h1v-1z"></path>
<path fill="#ffaa17" style="fill: var(--color1, #ffaa17)" d="M6.807 24.485l-0.707 0.707 0.707 0.707 0.707-0.707-0.707-0.707z"></path>
<path fill="#ffaa17" style="fill: var(--color1, #ffaa17)" d="M16.5 28.5h-1v1h1v-1z"></path>
<path fill="#ffaa17" style="fill: var(--color1, #ffaa17)" d="M25.192 24.485l-0.707 0.707 0.707 0.707 0.707-0.707-0.707-0.707z"></path>
<path fill="#ffaa17" style="fill: var(--color1, #ffaa17)" d="M29.5 15.5h-1v1h1v-1z"></path>
<path fill="#ffaa17" style="fill: var(--color1, #ffaa17)" d="M25.192 6.1l-0.707 0.707 0.707 0.707 0.707-0.707-0.707-0.707z"></path>
<path fill="#ffaa17" style="fill: var(--color1, #ffaa17)" d="M19 19h-6v-6h6v6zM14 18h4v-4h-4v4z"></path>
<path fill="#ffaa17" style="fill: var(--color1, #ffaa17)" d="M21 11h-2.5v-1.5h-1v1.5h-1v-1.5h-1v1.5h-1v-1.5h-1v1.5h-2.5v2.5h-1.5v1h1.5v1h-1.5v1h1.5v1h-1.5v1h1.5v2.5h2.5v1.5h1v-1.5h1v1.5h1v-1.5h1v1.5h1v-1.5h2.5v-2.5h1.5v-1h-1.5v-1h1.5v-1h-1.5v-1h1.5v-1h-1.5v-2.5zM20 20h-8v-8h8v8z"></path>
<path fill="#ffaa17" style="fill: var(--color1, #ffaa17)" d="M14.5 7.5h-1v1h1v-1z"></path>
<path fill="#ffaa17" style="fill: var(--color1, #ffaa17)" d="M16.5 7.5h-1v1h1v-1z"></path>
<path fill="#ffaa17" style="fill: var(--color1, #ffaa17)" d="M18.5 7.5h-1v1h1v-1z"></path>
<path fill="#ffaa17" style="fill: var(--color1, #ffaa17)" d="M8.5 17.5h-1v1h1v-1z"></path>
<path fill="#ffaa17" style="fill: var(--color1, #ffaa17)" d="M8.5 15.5h-1v1h1v-1z"></path>
<path fill="#ffaa17" style="fill: var(--color1, #ffaa17)" d="M8.5 13.5h-1v1h1v-1z"></path>
<path fill="#ffaa17" style="fill: var(--color1, #ffaa17)" d="M18.5 23.5h-1v1h1v-1z"></path>
<path fill="#ffaa17" style="fill: var(--color1, #ffaa17)" d="M16.5 23.5h-1v1h1v-1z"></path>
<path fill="#ffaa17" style="fill: var(--color1, #ffaa17)" d="M14.5 23.5h-1v1h1v-1z"></path>
<path fill="#ffaa17" style="fill: var(--color1, #ffaa17)" d="M24.5 13.5h-1v1h1v-1z"></path>
<path fill="#ffaa17" style="fill: var(--color1, #ffaa17)" d="M24.5 15.5h-1v1h1v-1z"></path>
<path fill="#ffaa17" style="fill: var(--color1, #ffaa17)" d="M24.5 17.5h-1v1h1v-1z"></path>
</symbol>
<symbol id="icon-personal" viewBox="0 0 23 32">
<path fill="#ffaa17" style="fill: var(--color1, #ffaa17)" d="M13.158 21.651h-1.027v3.596h1.027v-3.596z"></path>
<path fill="#ffaa17" style="fill: var(--color1, #ffaa17)" d="M13.158 19.596h-1.027v1.027h1.027v-1.027z"></path>
<path fill="#ffaa17" style="fill: var(--color1, #ffaa17)" d="M11.103 21.651h-1.027v3.596h1.027v-3.596z"></path>
<path fill="#ffaa17" style="fill: var(--color1, #ffaa17)" d="M11.103 19.596h-1.027v1.027h1.027v-1.027z"></path>
<path fill="#ffaa17" style="fill: var(--color1, #ffaa17)" d="M15.726 10.349c0-2.266-1.844-4.11-4.11-4.11s-4.11 1.844-4.11 4.11c0 2.266 1.844 4.11 4.11 4.11s4.11-1.844 4.11-4.11zM11.616 13.431c-1.7 0-3.082-1.382-3.082-3.082s1.382-3.082 3.082-3.082 3.082 1.382 3.082 3.082c0 1.7-1.382 3.082-3.082 3.082z"></path>
<path fill="#ffaa17" style="fill: var(--color1, #ffaa17)" d="M11.616 8.295c-1.133 0-2.055 0.922-2.055 2.055s0.922 2.055 2.055 2.055 2.055-0.922 2.055-2.055c0-1.133-0.922-2.055-2.055-2.055zM11.616 11.377c-0.567 0-1.027-0.461-1.027-1.027s0.461-1.027 1.027-1.027c0.567 0 1.027 0.461 1.027 1.027s-0.461 1.027-1.027 1.027z"></path>
<path fill="#ffaa17" style="fill: var(--color1, #ffaa17)" d="M12.13 4.185h-1.027v1.027h1.027v-1.027z"></path>
<path fill="#ffaa17" style="fill: var(--color1, #ffaa17)" d="M7.621 5.627l-0.726 0.726 0.726 0.726 0.727-0.726-0.726-0.726z"></path>
<path fill="#ffaa17" style="fill: var(--color1, #ffaa17)" d="M6.479 9.836h-1.027v1.027h1.027v-1.027z"></path>
<path fill="#ffaa17" style="fill: var(--color1, #ffaa17)" d="M7.62 13.618l-0.726 0.726 0.726 0.726 0.726-0.726-0.726-0.726z"></path>
<path fill="#ffaa17" style="fill: var(--color1, #ffaa17)" d="M12.13 15.486h-1.027v1.027h1.027v-1.027z"></path>
<path fill="#ffaa17" style="fill: var(--color1, #ffaa17)" d="M15.612 13.619l-0.726 0.726 0.726 0.726 0.727-0.726-0.726-0.726z"></path>
<path fill="#ffaa17" style="fill: var(--color1, #ffaa17)" d="M17.781 9.836h-1.027v1.027h1.027v-1.027z"></path>
<path fill="#ffaa17" style="fill: var(--color1, #ffaa17)" d="M15.612 5.628l-0.726 0.726 0.726 0.726 0.726-0.726-0.726-0.726z"></path>
<path fill="#ffaa17" style="fill: var(--color1, #ffaa17)" d="M19.385 3.169c-2.276-2.155-5.262-3.253-8.403-3.076-5.891 0.322-10.576 5.201-10.666 11.107-0.048 3.131 1.16 6.060 3.404 8.248 1.779 1.736 2.759 3.97 2.759 6.292v2.075h10.274v-2.020c0-2.347 0.988-4.609 2.783-6.37 2.18-2.14 3.381-4.998 3.381-8.048 0-3.136-1.254-6.050-3.533-8.208zM15.726 26.788h-8.219v-1.027h8.221c0 0.012-0.002 0.023-0.002 0.034v0.993zM18.818 18.691c-1.723 1.691-2.773 3.805-3.027 6.042h-8.34c-0.243-2.232-1.29-4.34-3.012-6.020-2.039-1.989-3.138-4.652-3.094-7.497 0.081-5.369 4.339-9.804 9.694-10.098 2.852-0.154 5.571 0.837 7.64 2.797 2.071 1.961 3.212 4.611 3.212 7.462 0 2.772-1.092 5.37-3.073 7.315z"></path>
<path fill="#ffaa17" style="fill: var(--color1, #ffaa17)" d="M11.616 30.897c-1.416 0-2.569-0.922-2.569-2.055h-1.027c0 1.7 1.614 3.082 3.596 3.082s3.596-1.382 3.596-3.082h-1.027c0 1.133-1.152 2.055-2.569 2.055z"></path>
<path fill="#ffaa17" style="fill: var(--color1, #ffaa17)" d="M17.276 7.585l-0.325 0.975 1.857 0.619v2.341l-2.419 0.806 1.14 2.28-1.656 1.656-2.28-1.14-0.806 2.419h-2.341l-0.806-2.419-2.28 1.14-1.918-1.918-0.726 0.726 2.441 2.441 1.883-0.942 0.666 1.998h3.823l0.666-1.998 1.883 0.942 2.703-2.703-0.942-1.883 1.998-0.666v-3.823l-2.559-0.853z"></path>
<path fill="#ffaa17" style="fill: var(--color1, #ffaa17)" d="M6.282 12.139l-1.857-0.619v-2.341l2.419-0.807-1.14-2.28 1.656-1.656 2.28 1.14 0.806-2.418h2.341l0.806 2.418 2.28-1.14 1.918 1.918 0.726-0.726-2.441-2.441-1.883 0.941-0.666-1.997h-3.823l-0.666 1.997-1.883-0.941-2.703 2.703 0.942 1.883-1.998 0.666v3.823l2.559 0.853 0.325-0.974z"></path>
</symbol>
<symbol id="icon-eur-1200" viewBox="0 0 32 32">
<path fill="#ffaa17" style="fill: var(--color1, #ffaa17)" d="M30.897 15.581v-4.299c0.596-0.213 1.027-0.778 1.027-1.447 0-0.85-0.691-1.541-1.541-1.541-0.177 0-0.344 0.036-0.502 0.091l-2.302-2.878c0.147-0.235 0.236-0.511 0.236-0.809 0-0.85-0.691-1.541-1.541-1.541-0.432 0-0.821 0.18-1.102 0.467l-4.050-1.869c0.005-0.047 0.014-0.091 0.014-0.139 0-0.85-0.691-1.541-1.541-1.541-0.669 0-1.234 0.431-1.447 1.027h-5.84c-0.213-0.596-0.778-1.027-1.447-1.027-0.85 0-1.541 0.691-1.541 1.541 0 0.064 0.011 0.125 0.019 0.186l-2.548 1.274c-0.277-0.267-0.652-0.433-1.067-0.433-0.85 0-1.541 0.691-1.541 1.541 0 0.298 0.089 0.574 0.235 0.81l-2.302 2.877c-0.158-0.055-0.325-0.091-0.502-0.091-0.85 0-1.541 0.691-1.541 1.541 0 0.669 0.431 1.234 1.027 1.447v3.272c-0.596 0.212-1.027 0.777-1.027 1.446 0 0.85 0.691 1.541 1.541 1.541 0.571 0 1.064-0.315 1.33-0.777l2.804 0.51c0.119 0.732 0.75 1.294 1.516 1.294 0.021 0 0.040-0.005 0.061-0.006l0.98 2.45c-0.321 0.283-0.527 0.691-0.527 1.152 0 0.85 0.691 1.541 1.541 1.541 0.517 0 0.972-0.258 1.252-0.649l4.409 1.26c0.040 0.626 0.45 1.148 1.018 1.35v3.785c-0.596 0.213-1.027 0.778-1.027 1.447 0 0.85 0.691 1.541 1.541 1.541s1.541-0.691 1.541-1.541c0-0.669-0.431-1.234-1.027-1.447v-3.785c0.596-0.213 1.027-0.778 1.027-1.447 0-0.492-0.236-0.927-0.597-1.209l0.613-1.84 4.609 1.536c0.012 0.656 0.437 1.208 1.024 1.417v5.327c-0.596 0.213-1.027 0.778-1.027 1.447 0 0.85 0.691 1.541 1.541 1.541s1.541-0.691 1.541-1.541c0-0.669-0.431-1.234-1.027-1.447v-5.326c0.596-0.213 1.027-0.778 1.027-1.447 0-0.188-0.039-0.365-0.1-0.532l3.942-3.285c0.23 0.137 0.496 0.22 0.782 0.22 0.85 0 1.541-0.691 1.541-1.541 0-0.669-0.431-1.234-1.027-1.447zM8.805 16.485c-0.001-0.062-0.010-0.121-0.018-0.18l4.214-2.185 1.303 4.198-5.499-1.833zM7.659 15.029l-0.712-5.46 3.52-0.176c0.223 0.541 0.747 0.925 1.362 0.949l0.863 2.78-4.375 2.268c-0.184-0.171-0.408-0.295-0.658-0.362zM3.040 8.736c-0.032-0.079-0.074-0.153-0.119-0.224l2.302-2.877c0.060 0.021 0.118 0.043 0.18 0.056l0.38 2.908-2.743 0.137zM6.422 5.552c0.499-0.255 0.845-0.77 0.845-1.367 0-0.064-0.011-0.125-0.019-0.186l2.548-1.274c0.277 0.267 0.652 0.433 1.067 0.433 0.315 0 0.609-0.096 0.853-0.259l3.19 2.392-2.31 2.155c-0.213-0.11-0.45-0.179-0.706-0.179-0.696 0-1.278 0.466-1.469 1.1l-3.608 0.18-0.391-2.995zM18.185 2.231l-2.516 2.348-3.266-2.449h5.746c0.012 0.034 0.021 0.068 0.035 0.101zM19.617 9.532l-4.134 2.144-2.206-2.206c0.096-0.201 0.155-0.423 0.155-0.661 0-0.219-0.047-0.426-0.129-0.614l2.439-2.277 3.931 2.949c-0.045 0.145-0.077 0.296-0.077 0.456 0 0.072 0.012 0.14 0.021 0.21zM12.404 8.808c0 0.283-0.23 0.514-0.514 0.514s-0.514-0.231-0.514-0.514c0-0.283 0.23-0.514 0.514-0.514s0.514 0.231 0.514 0.514zM14.527 12.171l-0.909 0.471-0.621-2.001 1.53 1.53zM13.927 13.639l1.361-0.706 2.407 2.407c-0.096 0.201-0.154 0.423-0.154 0.66 0 0.493 0.236 0.927 0.597 1.209l-0.716 2.148-1.918-0.64-1.577-5.078zM19.082 16.514c-0.284 0-0.514-0.231-0.514-0.514s0.23-0.514 0.514-0.514c0.284 0 0.514 0.231 0.514 0.514s-0.23 0.514-0.514 0.514zM19.082 14.459c-0.237 0-0.459 0.058-0.66 0.155l-2.177-2.177 3.842-1.993c0.275 0.258 0.643 0.419 1.049 0.419 0.287 0 0.552-0.084 0.782-0.221l2.339 1.949-4.152 2.265c-0.273-0.244-0.629-0.397-1.024-0.397zM25.544 6.047c0.218 0.119 0.465 0.193 0.73 0.193 0.177 0 0.344-0.036 0.502-0.091l2.302 2.878c-0.146 0.236-0.235 0.511-0.235 0.809 0 0.083 0.012 0.163 0.025 0.242l-3.639 1.985-2.651-2.209c0.062-0.166 0.1-0.344 0.1-0.532 0-0.209-0.043-0.408-0.118-0.59l2.984-2.685zM29.602 15.707l-3.524-2.937 3.283-1.791c0.147 0.133 0.32 0.235 0.51 0.303v4.299c-0.095 0.034-0.184 0.075-0.269 0.126zM21.651 9.322c0 0.283-0.23 0.514-0.514 0.514s-0.514-0.231-0.514-0.514 0.23-0.514 0.514-0.514c0.284 0 0.514 0.231 0.514 0.514zM25.107 13.299l3.681 3.068-7.976-0.725 4.295-2.342zM30.897 9.836c0 0.283-0.23 0.514-0.514 0.514s-0.514-0.231-0.514-0.514c0-0.283 0.23-0.514 0.514-0.514s0.514 0.231 0.514 0.514zM26.274 4.185c0.284 0 0.514 0.231 0.514 0.514s-0.23 0.514-0.514 0.514-0.514-0.231-0.514-0.514c0-0.283 0.23-0.514 0.514-0.514zM24.747 4.559c-0.004 0.047-0.014 0.091-0.014 0.139 0 0.209 0.043 0.408 0.118 0.59l-2.984 2.685c-0.218-0.119-0.464-0.193-0.73-0.193-0.315 0-0.609 0.096-0.853 0.259l-3.78-2.835 2.386-2.227c0.212 0.111 0.45 0.179 0.706 0.179 0.432 0 0.822-0.18 1.102-0.467l4.049 1.869zM19.596 1.103c0.284 0 0.514 0.231 0.514 0.514s-0.23 0.514-0.514 0.514c-0.284 0-0.514-0.231-0.514-0.514s0.23-0.514 0.514-0.514zM10.863 1.103c0.284 0 0.514 0.231 0.514 0.514s-0.23 0.514-0.514 0.514c-0.284 0-0.514-0.231-0.514-0.514s0.23-0.514 0.514-0.514zM5.726 3.671c0.284 0 0.514 0.231 0.514 0.514s-0.23 0.514-0.514 0.514c-0.284 0-0.514-0.231-0.514-0.514s0.23-0.514 0.514-0.514zM1.616 8.808c0.284 0 0.514 0.231 0.514 0.514s-0.23 0.514-0.514 0.514c-0.284 0-0.514-0.231-0.514-0.514s0.23-0.514 0.514-0.514zM1.616 16c-0.284 0-0.514-0.231-0.514-0.514s0.23-0.514 0.514-0.514c0.284 0 0.514 0.231 0.514 0.514s-0.23 0.514-0.514 0.514zM2.13 14.040v-3.272c0.459-0.164 0.814-0.536 0.955-1.006l2.832-0.142 0.716 5.491c-0.295 0.134-0.536 0.359-0.697 0.637l-2.804-0.509c-0.091-0.559-0.481-1.014-1.003-1.2zM6.753 16.514c0-0.283 0.23-0.514 0.514-0.514s0.514 0.231 0.514 0.514c0 0.283-0.23 0.514-0.514 0.514s-0.514-0.231-0.514-0.514zM8.281 17.665c0.071-0.063 0.136-0.132 0.195-0.207l6.203 2.068 0.916 2.95c-0.127 0.096-0.24 0.208-0.333 0.337l-4.409-1.26c-0.051-0.803-0.715-1.444-1.531-1.444-0.021 0-0.040 0.005-0.060 0.006l-0.981-2.451zM9.322 22.164c-0.284 0-0.514-0.231-0.514-0.514s0.23-0.514 0.514-0.514c0.284 0 0.514 0.231 0.514 0.514s-0.23 0.514-0.514 0.514zM16.514 30.897c-0.284 0-0.514-0.231-0.514-0.514s0.23-0.514 0.514-0.514c0.284 0 0.514 0.231 0.514 0.514s-0.23 0.514-0.514 0.514zM16.514 24.219c-0.284 0-0.514-0.231-0.514-0.514s0.23-0.514 0.514-0.514c0.284 0 0.514 0.231 0.514 0.514s-0.23 0.514-0.514 0.514zM16.531 22.029l-0.653-2.103 1.218 0.406-0.566 1.697zM19.111 17.538c0.607-0.011 1.127-0.375 1.367-0.895l8.417 0.765c0.013 0.051 0.029 0.102 0.047 0.151l-3.942 3.285c-0.23-0.137-0.495-0.22-0.782-0.22-0.492 0-0.927 0.236-1.209 0.597l-4.614-1.538 0.715-2.144zM24.219 30.897c-0.284 0-0.514-0.231-0.514-0.514s0.23-0.514 0.514-0.514c0.284 0 0.514 0.231 0.514 0.514s-0.23 0.514-0.514 0.514zM24.219 22.678c-0.284 0-0.514-0.231-0.514-0.514s0.23-0.514 0.514-0.514c0.284 0 0.514 0.231 0.514 0.514s-0.23 0.514-0.514 0.514zM30.384 17.541c-0.284 0-0.514-0.231-0.514-0.514s0.23-0.514 0.514-0.514 0.514 0.231 0.514 0.514c0 0.283-0.23 0.514-0.514 0.514z"></path>
<path fill="#ffaa17" style="fill: var(--color1, #ffaa17)" d="M2.13 0.075h-1.027v1.027h1.027v-1.027z"></path>
<path fill="#ffaa17" style="fill: var(--color1, #ffaa17)" d="M2.13 2.13h-1.027v1.027h1.027v-1.027z"></path>
<path fill="#ffaa17" style="fill: var(--color1, #ffaa17)" d="M3.158 1.103h-1.027v1.027h1.027v-1.027z"></path>
<path fill="#ffaa17" style="fill: var(--color1, #ffaa17)" d="M1.103 1.103h-1.027v1.027h1.027v-1.027z"></path>
<path fill="#ffaa17" style="fill: var(--color1, #ffaa17)" d="M27.815 23.705h-1.027v1.027h1.027v-1.027z"></path>
<path fill="#ffaa17" style="fill: var(--color1, #ffaa17)" d="M27.815 25.76h-1.027v1.027h1.027v-1.027z"></path>
<path fill="#ffaa17" style="fill: var(--color1, #ffaa17)" d="M28.842 24.733h-1.027v1.027h1.027v-1.027z"></path>
<path fill="#ffaa17" style="fill: var(--color1, #ffaa17)" d="M26.788 24.733h-1.027v1.027h1.027v-1.027z"></path>
<path fill="#ffaa17" style="fill: var(--color1, #ffaa17)" d="M30.897 2.13h-1.027v1.027h1.027v-1.027z"></path>
<path fill="#ffaa17" style="fill: var(--color1, #ffaa17)" d="M30.897 4.185h-1.027v1.027h1.027v-1.027z"></path>
<path fill="#ffaa17" style="fill: var(--color1, #ffaa17)" d="M31.925 3.158h-1.027v1.027h1.027v-1.027z"></path>
<path fill="#ffaa17" style="fill: var(--color1, #ffaa17)" d="M29.87 3.158h-1.027v1.027h1.027v-1.027z"></path>
<path fill="#ffaa17" style="fill: var(--color1, #ffaa17)" d="M7.267 24.733h-1.027v1.027h1.027v-1.027z"></path>
<path fill="#ffaa17" style="fill: var(--color1, #ffaa17)" d="M7.267 26.788h-1.027v1.027h1.027v-1.027z"></path>
<path fill="#ffaa17" style="fill: var(--color1, #ffaa17)" d="M8.295 25.76h-1.027v1.027h1.027v-1.027z"></path>
<path fill="#ffaa17" style="fill: var(--color1, #ffaa17)" d="M6.24 25.76h-1.027v1.027h1.027v-1.027z"></path>
<path fill="#ffaa17" style="fill: var(--color1, #ffaa17)" d="M4.185 19.082h-1.027v1.027h1.027v-1.027z"></path>
<path fill="#ffaa17" style="fill: var(--color1, #ffaa17)" d="M4.185 21.137h-1.027v1.027h1.027v-1.027z"></path>
<path fill="#ffaa17" style="fill: var(--color1, #ffaa17)" d="M5.212 20.11h-1.027v1.027h1.027v-1.027z"></path>
<path fill="#ffaa17" style="fill: var(--color1, #ffaa17)" d="M3.158 20.11h-1.027v1.027h1.027v-1.027z"></path>
</symbol>
<symbol id="icon-eur-1400" viewBox="0 0 32 32">
<path fill="#ffaa17" style="fill: var(--color1, #ffaa17)" d="M16 20.623c2.549 0 4.623-2.074 4.623-4.623s-2.074-4.623-4.623-4.623c-2.549 0-4.623 2.074-4.623 4.623s2.074 4.623 4.623 4.623zM15.486 16c0-0.284 0.231-0.514 0.514-0.514s0.514 0.23 0.514 0.514c0 0.284-0.231 0.514-0.514 0.514s-0.514-0.23-0.514-0.514zM16 12.404c1.983 0 3.596 1.614 3.596 3.596 0 1.808-1.342 3.304-3.082 3.555v-2.108c0.596-0.213 1.027-0.778 1.027-1.447 0-0.85-0.691-1.541-1.541-1.541s-1.541 0.691-1.541 1.541c0 0.669 0.431 1.234 1.027 1.447v2.108c-1.74-0.251-3.082-1.747-3.082-3.555 0-1.982 1.613-3.596 3.596-3.596z"></path>
<path fill="#ffaa17" style="fill: var(--color1, #ffaa17)" d="M21.963 13.004l-0.917 0.462c0.127 0.252 0.234 0.508 0.317 0.759l0.097 0.294 2.246 0.375v2.211l-2.246 0.375-0.097 0.294c-0.083 0.251-0.19 0.507-0.317 0.759l-0.14 0.277 1.325 1.855-1.564 1.564-1.855-1.325-0.277 0.139c-0.253 0.127-0.509 0.234-0.76 0.317l-0.294 0.097-0.375 2.247h-2.212l-0.374-2.246-0.294-0.097c-0.251-0.083-0.507-0.19-0.76-0.317l-0.277-0.139-1.855 1.325-1.872-1.872-0.726 0.726 2.488 2.486 2.065-1.475c0.106 0.048 0.213 0.092 0.32 0.134l0.417 2.502h3.952l0.417-2.502c0.106-0.041 0.213-0.086 0.32-0.134l2.065 1.475 2.795-2.794-1.475-2.066c0.048-0.106 0.093-0.213 0.134-0.32l2.502-0.416v-3.953l-2.502-0.417c-0.078-0.202-0.168-0.404-0.269-0.604z"></path>
<path fill="#ffaa17" style="fill: var(--color1, #ffaa17)" d="M7.267 14.023v3.953l2.502 0.417c0.078 0.202 0.168 0.404 0.269 0.604l0.917-0.462c-0.127-0.252-0.234-0.508-0.317-0.759l-0.097-0.294-2.246-0.375v-2.211l2.246-0.374 0.097-0.294c0.083-0.251 0.19-0.507 0.317-0.759l0.14-0.277-1.325-1.855 1.564-1.564 1.855 1.325 0.277-0.14c0.25-0.126 0.505-0.233 0.759-0.316l0.294-0.097 0.374-2.247h2.212l0.375 2.246 0.294 0.097c0.254 0.084 0.509 0.19 0.759 0.316l0.277 0.14 1.855-1.325 1.872 1.872 0.726-0.726-2.488-2.487-2.065 1.475c-0.106-0.048-0.213-0.092-0.32-0.134l-0.417-2.502h-3.952l-0.417 2.502c-0.107 0.042-0.214 0.086-0.32 0.134l-2.065-1.475-2.795 2.795 1.475 2.066c-0.048 0.106-0.092 0.213-0.134 0.32l-2.502 0.416z"></path>
<path fill="#ffaa17" style="fill: var(--color1, #ffaa17)" d="M16.514 9.322h-1.027v1.027h1.027v-1.027z"></path>
<path fill="#ffaa17" style="fill: var(--color1, #ffaa17)" d="M11.641 10.915l-0.726 0.726 0.726 0.726 0.726-0.726-0.726-0.726z"></path>
<path fill="#ffaa17" style="fill: var(--color1, #ffaa17)" d="M10.349 15.486h-1.027v1.027h1.027v-1.027z"></path>
<path fill="#ffaa17" style="fill: var(--color1, #ffaa17)" d="M11.641 19.632l-0.726 0.727 0.726 0.726 0.726-0.726-0.726-0.727z"></path>
<path fill="#ffaa17" style="fill: var(--color1, #ffaa17)" d="M16.514 21.651h-1.027v1.027h1.027v-1.027z"></path>
<path fill="#ffaa17" style="fill: var(--color1, #ffaa17)" d="M20.359 19.632l-0.727 0.726 0.727 0.727 0.727-0.727-0.727-0.726z"></path>
<path fill="#ffaa17" style="fill: var(--color1, #ffaa17)" d="M22.678 15.486h-1.027v1.027h1.027v-1.027z"></path>
<path fill="#ffaa17" style="fill: var(--color1, #ffaa17)" d="M20.359 10.915l-0.727 0.726 0.727 0.726 0.727-0.726-0.727-0.726z"></path>
<path fill="#ffaa17" style="fill: var(--color1, #ffaa17)" d="M31.909 15.876c-0.027-0.107-2.817-10.663-15.909-10.663s-15.883 10.557-15.909 10.663l-0.031 0.124 0.031 0.124c0.027 0.107 2.817 10.663 15.909 10.663s15.883-10.557 15.909-10.663l0.031-0.124-0.031-0.124zM1.122 16.003c0.268-0.89 2.168-6.393 8.553-8.723-2.698 1.963-4.463 5.135-4.463 8.72 0 3.609 1.787 6.801 4.517 8.761-6.481-2.291-8.333-7.806-8.607-8.758zM16 6.24c5.382 0 9.76 4.378 9.76 9.76s-4.378 9.76-9.76 9.76c-5.382 0-9.76-4.378-9.76-9.76s4.378-9.76 9.76-9.76zM22.325 24.72c2.698-1.963 4.463-5.135 4.463-8.72 0-3.609-1.787-6.801-4.517-8.761 6.481 2.291 8.332 7.806 8.607 8.758-0.268 0.891-2.167 6.393-8.552 8.723z"></path>
<path fill="#ffaa17" style="fill: var(--color1, #ffaa17)" d="M15.486 29.356c0 0.284-0.231 0.514-0.514 0.514h-8.314c-0.213-0.596-0.778-1.027-1.447-1.027-0.85 0-1.541 0.691-1.541 1.541s0.691 1.541 1.541 1.541c0.669 0 1.234-0.431 1.447-1.027h8.314c0.85 0 1.541-0.691 1.541-1.541v-1.541h-1.027v1.541zM5.212 30.897c-0.283 0-0.514-0.23-0.514-0.514s0.231-0.514 0.514-0.514c0.283 0 0.514 0.23 0.514 0.514s-0.231 0.514-0.514 0.514z"></path>
<path fill="#ffaa17" style="fill: var(--color1, #ffaa17)" d="M5.212 27.301c0.85 0 1.541-0.691 1.541-1.541v-0.514h-1.027v0.514c0 0.284-0.231 0.514-0.514 0.514h-2.149c-0.213-0.596-0.778-1.027-1.447-1.027-0.85 0-1.541 0.691-1.541 1.541s0.691 1.541 1.541 1.541c0.669 0 1.234-0.431 1.447-1.027h2.149zM1.616 27.301c-0.283 0-0.514-0.23-0.514-0.514s0.231-0.514 0.514-0.514 0.514 0.23 0.514 0.514c0 0.284-0.231 0.514-0.514 0.514z"></path>
<path fill="#ffaa17" style="fill: var(--color1, #ffaa17)" d="M30.384 3.671c-0.669 0-1.234 0.431-1.447 1.027h-2.149c-0.85 0-1.541 0.691-1.541 1.541v0.514h1.027v-0.514c0-0.284 0.231-0.514 0.514-0.514h2.149c0.213 0.596 0.778 1.027 1.447 1.027 0.85 0 1.541-0.691 1.541-1.541s-0.691-1.541-1.541-1.541zM30.384 5.726c-0.283 0-0.514-0.23-0.514-0.514s0.231-0.514 0.514-0.514 0.514 0.23 0.514 0.514c0 0.284-0.231 0.514-0.514 0.514z"></path>
<path fill="#ffaa17" style="fill: var(--color1, #ffaa17)" d="M26.788 3.158c0.85 0 1.541-0.691 1.541-1.541s-0.691-1.541-1.541-1.541c-0.669 0-1.234 0.431-1.447 1.027h-8.314c-0.85 0-1.541 0.691-1.541 1.541v1.541h1.027v-1.541c0-0.284 0.231-0.514 0.514-0.514h8.314c0.213 0.596 0.778 1.027 1.447 1.027zM26.788 1.103c0.283 0 0.514 0.23 0.514 0.514s-0.231 0.514-0.514 0.514c-0.283 0-0.514-0.23-0.514-0.514s0.231-0.514 0.514-0.514z"></path>
</symbol>
<symbol id="icon-gmail" viewBox="0 0 32 32">
<path fill="#e89c18" style="fill: var(--color1, #e89c18)" d="M16 0c8.837 0 16 7.163 16 16s-7.163 16-16 16c-8.837 0-16-7.163-16-16s7.163-16 16-16z"></path>
<path fill="#000" style="fill: var(--color2, #000)" d="M12.359 16c0-0.416 0.069-0.814 0.192-1.188l-2.157-1.647c-0.42 0.853-0.657 1.815-0.657 2.835s0.237 1.98 0.656 2.833l2.156-1.65c-0.122-0.372-0.19-0.769-0.19-1.183z"></path>
<path fill="#000" style="fill: var(--color2, #000)" d="M16.146 12.218c0.903 0 1.719 0.32 2.36 0.844l1.864-1.862c-1.136-0.989-2.593-1.6-4.224-1.6-2.533 0-4.71 1.448-5.752 3.565l2.157 1.647c0.497-1.509 1.914-2.594 3.595-2.594z"></path>
<path fill="#000" style="fill: var(--color2, #000)" d="M16.146 19.782c-1.681 0-3.098-1.085-3.595-2.594l-2.157 1.647c1.042 2.117 3.219 3.565 5.752 3.565 1.563 0 3.056-0.555 4.176-1.595l-2.047-1.583c-0.578 0.364-1.305 0.56-2.128 0.56z"></path>
<path fill="#000" style="fill: var(--color2, #000)" d="M22.263 16c0-0.378-0.058-0.786-0.146-1.164h-5.972v2.473h3.438c-0.172 0.843-0.64 1.491-1.309 1.913l2.047 1.583c1.177-1.092 1.942-2.719 1.942-4.805z"></path>
</symbol>
<symbol id="icon-whatsup" viewBox="0 0 32 32">
<path fill="#e89c18" style="fill: var(--color1, #e89c18)" d="M16 0c8.837 0 16 7.163 16 16s-7.163 16-16 16c-8.837 0-16-7.163-16-16s7.163-16 16-16z"></path>
<path fill="none" stroke="#000" style="stroke: var(--color2, #000)" stroke-linejoin="miter" stroke-linecap="butt" stroke-miterlimit="10" stroke-width="1.6" d="M9.25 22.75l3-0.825c1.075 0.675 2.375 1.075 3.75 1.075 3.875 0 7-3.125 7-7s-3.125-7-7-7c-3.875 0-7 3.125-7 7 0 1.375 0.4 2.675 1.075 3.75l-0.825 3z"></path>
<path fill="#000" style="fill: var(--color2, #000)" d="M19.475 17.9c-0.475 1-1.35 1.125-1.35 1.125-0.75 0.15-1.7-0.175-2.45-0.525-1.075-0.5-2-1.3-2.625-2.325-0.275-0.475-0.525-1.025-0.55-1.55 0 0-0.1-0.875 0.75-1.575 0.075-0.050 0.15-0.075 0.25-0.075h0.375c0.15 0 0.3 0.1 0.35 0.25l0.575 1.4c0.050 0.15 0.025 0.3-0.075 0.425l-0.375 0.4c-0.125 0.125-0.125 0.3-0.050 0.45 0.025 0.050 0.075 0.125 0.15 0.2 0.45 0.6 1.050 1.050 1.725 1.35 0.1 0.050 0.175 0.075 0.25 0.1 0.175 0.050 0.325-0.025 0.425-0.15l0.3-0.45c0.075-0.125 0.225-0.2 0.375-0.175l1.5 0.225c0.15 0.025 0.275 0.15 0.325 0.3l0.1 0.375c0.050 0.050 0.050 0.15 0.025 0.225z"></path>
</symbol>
<symbol id="icon-rh-logo" viewBox="0 0 143 32">
<path fill="#e89c18" style="fill: var(--color1, #e89c18)" d="M60.47 8.364l79.579-8.364 2.484 23.635-79.579 8.364-2.484-23.635z"></path>
<path fill="#000105" style="fill: var(--color2, #000105)" opacity="0.2" d="M61.138 6.083l80.017-2.401 0.713 23.766-80.017 2.401-0.713-23.766z"></path>
<path fill="#ffaa17" style="fill: var(--color3, #ffaa17)" d="M61.493 4.117h80.017v23.766h-80.017v-23.766z"></path>
<path fill="#fff" style="fill: var(--color4, #fff)" d="M129.438 22.688q-2.076 0-3.095-0.992-0.999-1.009-1.076-3.188l2.738-0.374q0.018 1.252 0.322 1.806c0.181 0.324 0.521 0.539 0.912 0.539 0.013 0 0.026-0 0.039-0.001l-0.002 0q0.805 0 0.805-0.96c0-0.017 0.001-0.037 0.001-0.058 0-0.471-0.148-0.908-0.399-1.267l0.005 0.007q-0.376-0.553-1.199-1.187l-1.253-0.997q-0.931-0.716-1.45-1.513-0.5-0.813-0.5-1.922 0-1.659 1.076-2.554 1.092-0.895 2.988-0.895 2.058 0 2.791 1.089 0.752 1.091 0.805 2.652l-2.755 0.307q-0.035-1.024-0.214-1.461-0.161-0.455-0.734-0.455c-0.008-0-0.017-0-0.026-0-0.255 0-0.481 0.128-0.615 0.323l-0.002 0.002c-0.135 0.191-0.215 0.428-0.215 0.684 0 0.006 0 0.011 0 0.017v-0.001q0 0.667 0.322 1.122 0.341 0.455 1.076 1.041l1.199 0.959q1.076 0.83 1.664 1.757t0.587 2.198c0 0.008 0 0.017 0 0.027 0 0.618-0.18 1.193-0.491 1.677l0.007-0.012c-0.326 0.509-0.774 0.914-1.305 1.178l-0.019 0.009q-0.858 0.443-1.986 0.443zM119.029 14.91q0.966 0 1.342-0.455 0.393-0.472 0.394-1.399 0-0.895-0.358-1.334-0.358-0.455-1.235-0.455h-1.037v3.643zM114.934 9.312h3.991q2.379 0 3.596 0.764t1.217 2.717q0 1.317-0.376 2.098t-1.396 1.22l1.987 6.381h-3.31l-1.592-5.905h-0.913v5.905h-3.204zM106.931 9.312h6.513v1.984h-3.31v3.27h2.523v2.017h-2.523v3.936h3.347v1.969h-6.549zM100.985 14.858q0.84 0 1.109-0.407 0.286-0.407 0.287-1.367 0-0.878-0.269-1.301t-1.145-0.423h-1.056v3.497zM96.706 9.312h4.867q1.914 0 2.863 0.992 0.949 0.976 0.949 2.831 0 2.115-1.109 2.944-1.092 0.813-3.075 0.813h-1.288v5.596h-3.207zM88.773 9.312h3.203v11.21h3.329v1.969h-6.535zM80.77 9.312h6.513v1.984h-3.31v3.27h2.523v2.017h-2.523v3.936h3.347v1.969h-6.549zM69.902 9.312h3.203v5.335h2.236v-5.335h3.22v13.179h-3.22v-5.759h-2.237v5.759h-3.203z"></path>
<path fill="#3f3f3f" style="fill: var(--color5, #3f3f3f)" d="M49.644 9.312h6.513v1.984h-3.31v3.27h2.523v2.017h-2.523v3.936h3.346v1.969h-6.549zM42.982 11.475h-2.183v-2.163h7.569v2.163h-2.164v11.016h-3.221zM35.483 20.617c0.454 0 0.751-0.135 0.895-0.407s0.217-0.658 0.217-1.135v-6.345q0-0.733-0.215-1.139c-0.144-0.271-0.441-0.407-0.895-0.407q-0.644 0-0.859 0.423-0.215 0.407-0.215 1.122v6.345q0 0.716 0.197 1.139 0.194 0.406 0.875 0.406zM35.483 22.488q-2.344 0-3.347-1.060-0.999-1.076-0.999-3.164v-4.758q0-2.089 0.999-3.132 0.999-1.062 3.347-1.062 2.362 0 3.364 1.059 1.019 1.059 1.019 3.132v4.761q0 2.089-1.019 3.164-1.002 1.062-3.364 1.063zM18.929 9.312h3.436l1.592 7.662 1.721-7.662h3.306l0.251 13.176h-2.273l-0.269-8.764-1.681 8.768h-2.022l-1.79-8.833-0.211 8.833h-2.306zM10.729 9.312h6.513v1.984h-3.31v3.27h2.52v2.017h-2.52v3.936h3.347v1.969h-6.549zM4.098 14.91q0.966 0 1.342-0.455 0.394-0.472 0.394-1.399 0-0.895-0.358-1.334-0.357-0.455-1.235-0.455h-1.038v3.643zM0 9.312h3.99q2.383 0 3.597 0.764t1.216 2.717q0 1.317-0.375 2.098t-1.396 1.22l1.987 6.381h-3.31l-1.593-5.905h-0.913v5.905h-3.203z"></path>
</symbol>
</defs>
</svg>
