<?xml version="1.0" standalone="no"?>
<!DOCTYPE svg PUBLIC "-//W3C//DTD SVG 20010904//EN"
 "http://www.w3.org/TR/2001/REC-SVG-20010904/DTD/svg10.dtd">
<svg version="1.0" xmlns="http://www.w3.org/2000/svg"
 width="1088.000000pt" height="1088.000000pt" viewBox="0 0 1088.000000 1088.000000"
 preserveAspectRatio="xMidYMid meet">
<metadata>
Created by potrace 1.14, written by Peter Selinger 2001-2017
</metadata>
<g transform="translate(0.000000,1088.000000) scale(0.100000,-0.100000)"
fill="#000000" stroke="none">
<path d="M511 5325 l0 -2765 570 0 c553 0 569 1 560 19 -6 10 -8 20 -6 22 3 4
6 67 5 109 -2 29 0 595 1 640 1 25 1 52 0 60 -1 8 0 33 0 55 1 22 1 49 1 60
-1 11 -1 40 -1 65 1 25 1 51 0 58 0 6 -1 18 -1 25 -1 21 0 270 1 317 1 25 1
52 0 60 -1 8 0 33 0 55 1 22 1 49 1 60 -1 11 -1 40 -1 65 1 25 1 51 0 58 -2
20 -2 31 -2 147 1 159 1 188 7 196 2 4 0 10 -6 14 -6 4 -7 11 -4 17 4 6 7 23
8 37 l1 26 665 -1 c366 0 694 -4 730 -7 89 -10 129 -15 149 -21 9 -3 31 -8 50
-11 39 -7 155 -47 191 -66 45 -24 94 -62 122 -94 28 -31 86 -132 93 -162 3
-10 14 -51 25 -91 20 -73 24 -92 35 -182 12 -92 15 -163 20 -475 7 -448 14
-561 41 -700 3 -11 7 -36 10 -55 7 -45 29 -136 56 -227 l21 -73 633 0 633 0 3
33 c7 69 -6 100 -69 163 -91 90 -141 207 -159 364 -3 30 -7 249 -10 485 -4
508 -9 600 -39 775 -5 25 -8 53 -9 63 0 9 -4 17 -9 17 -4 0 -6 4 -3 8 3 5 -2
31 -10 58 -9 27 -17 56 -19 64 -2 8 -4 15 -5 15 -1 0 -3 8 -5 17 -6 33 -87
184 -128 238 -49 65 -177 190 -194 190 -4 0 -16 9 -27 19 -28 26 -232 132
-240 124 -3 -4 -6 -2 -6 3 0 5 28 20 63 32 77 30 237 116 277 151 16 14 38 33
49 41 95 74 179 178 251 312 28 51 51 94 51 95 0 2 9 24 20 50 12 27 22 53 23
58 2 6 6 17 9 25 9 19 47 140 52 160 39 179 49 262 49 400 -1 152 -11 249 -36
355 -7 28 -12 52 -13 55 -4 25 -40 130 -45 130 -4 0 -7 6 -7 13 0 15 -112 249
-123 257 -4 3 -14 19 -23 36 -44 85 -194 259 -307 354 -36 30 -66 58 -68 63
-2 4 -8 7 -12 7 -5 0 -30 14 -56 32 -154 104 -405 196 -609 223 -16 2 -31 5
-32 6 -2 1 -12 3 -23 4 -11 1 -21 3 -22 4 -2 1 -32 4 -68 7 -36 2 -83 7 -105
11 -22 3 -700 8 -1507 10 l-1467 4 0 -2766z m2709 1792 c19 -3 53 -9 75 -12
22 -4 65 -13 95 -22 30 -8 62 -16 71 -18 58 -11 212 -112 243 -159 8 -13 21
-30 30 -38 38 -38 111 -209 122 -286 27 -195 24 -345 -12 -472 -8 -30 -16 -60
-18 -67 -1 -7 -5 -15 -8 -19 -4 -3 -18 -29 -32 -58 -29 -58 -102 -139 -168
-184 -39 -27 -127 -71 -153 -77 -5 -1 -17 -5 -25 -8 -8 -4 -26 -8 -40 -11 -14
-2 -45 -9 -70 -14 -87 -20 -289 -37 -375 -32 -11 0 -301 1 -645 0 -741 -1
-673 -2 -665 10 3 6 1 10 -5 10 -6 0 -8 5 -4 12 6 10 8 62 3 118 -1 8 -1 35 0
60 1 25 1 52 1 60 -1 28 -1 555 0 595 1 22 3 41 5 44 2 2 0 11 -5 21 -5 10 -7
20 -3 23 3 4 5 48 4 99 -2 116 -1 171 4 177 2 2 0 11 -5 21 -5 10 -7 20 -3 23
3 4 5 54 5 112 l-1 106 772 -4 c425 -2 788 -6 807 -10z"/>
<path d="M6019 8088 c-1 -2 -2 -1246 -3 -2766 l-1 -2762 573 0 572 0 1 53 c1
205 -1 328 -6 337 -3 5 -3 10 2 10 9 0 8 443 -1 466 -3 8 -2 14 2 14 6 0 7
439 1 475 -1 6 -1 14 0 19 3 13 3 129 1 141 -1 6 -2 14 -1 19 3 13 3 129 1
141 -1 6 -2 14 -1 19 3 13 3 129 1 141 -1 6 -2 14 0 20 5 26 1 446 -5 455 -3
5 -3 10 2 10 4 0 8 33 8 72 l0 73 1068 0 c588 0 1074 -3 1079 -6 6 -4 8 -14 5
-23 -3 -8 -2 -18 4 -21 5 -4 6 -11 3 -17 -5 -8 -9 -874 -3 -903 1 -5 0 -14 -1
-20 -2 -12 -2 -1258 1 -1265 1 -3 0 -9 -1 -15 -1 -5 -3 -52 -4 -102 l-1 -93
578 0 577 0 0 2765 0 2765 -575 0 c-541 0 -575 -1 -576 -17 -1 -43 -1 -169 1
-178 1 -5 1 -14 0 -20 -2 -12 -2 -1258 1 -1265 1 -3 0 -9 -1 -15 -1 -5 -2
-146 -2 -312 0 -276 -1 -303 -16 -304 -22 -1 -2124 -1 -2135 0 -4 1 -7 37 -6
80 1 43 -2 84 -5 90 -4 6 -4 11 1 11 9 0 8 443 -1 466 -3 8 -2 14 2 14 6 0 7
439 1 475 -1 6 -1 14 0 19 3 13 3 129 1 141 -1 6 -2 14 -1 19 3 13 3 129 1
141 -1 6 -2 14 -1 19 3 13 3 129 1 141 -1 6 -1 15 0 20 5 24 0 246 -5 255 -3
6 -2 10 3 10 8 0 6 82 -3 108 -2 6 -1 12 3 12 4 0 6 20 4 45 l-4 45 -569 0
c-313 0 -570 -1 -570 -2z"/>
</g>
</svg>
